<?xml version="1.0" standalone="no"?>
<!DOCTYPE svg PUBLIC "-//W3C//DTD SVG 20010904//EN"
 "http://www.w3.org/TR/2001/REC-SVG-20010904/DTD/svg10.dtd">
<svg version="1.0" xmlns="http://www.w3.org/2000/svg"
 width="512.000000pt" height="512.000000pt" viewBox="0 0 512.000000 512.000000"
 preserveAspectRatio="xMidYMid meet">

<g transform="translate(0.000000,512.000000) scale(0.100000,-0.100000)"
fill="#FFFFFF" stroke="none">
<path d="M320 4939 c-60 -27 -107 -74 -136 -134 l-24 -50 0 -2185 c0 -1475 3
-2197 10 -2222 16 -57 70 -120 130 -153 l55 -30 1183 -3 1182 -2 0 930 0 930
-310 0 -310 0 0 365 0 365 310 0 310 0 0 298 c0 421 19 544 109 727 142 286
394 437 769 461 92 6 494 -10 575 -23 l37 -6 0 -323 0 -323 -257 -3 c-214 -4
-266 -7 -304 -22 -71 -26 -124 -77 -150 -144 -22 -54 -23 -73 -27 -349 l-4
-293 361 0 c199 0 361 -3 361 -8 0 -4 -20 -162 -45 -352 -25 -190 -45 -351
-45 -357 0 -10 -70 -13 -315 -13 l-315 0 0 -930 0 -930 623 0 c721 0 697 -2
784 84 91 91 84 -132 81 2341 l-3 2180 -30 55 c-33 60 -96 114 -153 130 -25 7
-747 10 -2222 10 -2176 0 -2185 -1 -2230 -21z"/>
</g>
</svg>
